<svg width="44" height="42" viewBox="0 0 44 42" fill="none" xmlns="http://www.w3.org/2000/svg">
<rect x="0.608032" width="43.392" height="42" rx="6" fill="url(#paint0_linear_5_9)"/>
<path d="M12.608 12H13.994C14.504 12 14.949 12.343 15.081 12.835L15.464 14.272M15.464 14.272C21.0347 14.1159 26.6 14.7352 32 16.112C31.176 18.566 30.197 20.95 29.076 23.25H17.858M15.464 14.272L17.858 23.25M17.858 23.25C17.0624 23.25 16.2993 23.5661 15.7367 24.1287C15.1741 24.6913 14.858 25.4544 14.858 26.25H30.608M16.358 29.25C16.358 29.4489 16.279 29.6397 16.1384 29.7803C15.9977 29.921 15.8069 30 15.608 30C15.4091 30 15.2184 29.921 15.0777 29.7803C14.937 29.6397 14.858 29.4489 14.858 29.25C14.858 29.0511 14.937 28.8603 15.0777 28.7197C15.2184 28.579 15.4091 28.5 15.608 28.5C15.8069 28.5 15.9977 28.579 16.1384 28.7197C16.279 28.8603 16.358 29.0511 16.358 29.25ZM29.108 29.25C29.108 29.4489 29.029 29.6397 28.8884 29.7803C28.7477 29.921 28.5569 30 28.358 30C28.1591 30 27.9684 29.921 27.8277 29.7803C27.687 29.6397 27.608 29.4489 27.608 29.25C27.608 29.0511 27.687 28.8603 27.8277 28.7197C27.9684 28.579 28.1591 28.5 28.358 28.5C28.5569 28.5 28.7477 28.579 28.8884 28.7197C29.029 28.8603 29.108 29.0511 29.108 29.25Z" stroke="black" stroke-width="1.5" stroke-linecap="round" stroke-linejoin="round"/>
<defs>
<linearGradient id="paint0_linear_5_9" x1="22.304" y1="9.3602e-09" x2="22.608" y2="49.5" gradientUnits="userSpaceOnUse">
<stop stop-color="#00FF0A"/>
<stop offset="1" stop-color="#00FF0A" stop-opacity="0"/>
</linearGradient>
</defs>
</svg>
