<svg width="86" height="86" viewBox="0 0 86 86" fill="none" xmlns="http://www.w3.org/2000/svg">
<g clip-path="url(#clip0_2_357)">
<path d="M66.5806 38.8387C77.3056 38.8387 86 30.1444 86 19.4194C86 8.69434 77.3056 0 66.5806 0C55.8556 0 47.1613 8.69434 47.1613 19.4194C47.1613 30.1444 55.8556 38.8387 66.5806 38.8387Z" fill="white"/>
<path d="M38.2099 34.4555L23.1646 19.4194L38.2099 4.38323L34.2798 0.453125L19.2437 15.4985L4.20757 0.453125L0.277466 4.38323L15.3228 19.4194L0.277466 34.4555L4.20757 38.3856L19.2437 23.3402L34.2798 38.3856L38.2099 34.4555Z" fill="white"/>
<path d="M0 49.0107H86V86H0V49.0107Z" fill="white"/>
<path d="M11.346 72.1227C10.646 72.1227 10.0487 72.0761 9.554 71.9827C9.06867 71.8894 8.66267 71.7354 8.336 71.5207C8.01867 71.2967 7.77133 70.9981 7.594 70.6247C7.41667 70.2514 7.29067 69.7847 7.216 69.2247C7.15067 68.6554 7.118 67.9787 7.118 67.1947C7.118 66.4107 7.15067 65.7387 7.216 65.1787C7.29067 64.6094 7.41667 64.1381 7.594 63.7647C7.78067 63.3914 8.03267 63.0974 8.35 62.8827C8.67667 62.6587 9.08267 62.5001 9.568 62.4067C10.0533 62.3134 10.646 62.2667 11.346 62.2667C11.654 62.2667 11.9947 62.2807 12.368 62.3087C12.7507 62.3367 13.1287 62.3741 13.502 62.4207C13.8753 62.4581 14.2207 62.5094 14.538 62.5747V64.1007C14.2113 64.0541 13.894 64.0167 13.586 63.9887C13.278 63.9607 12.998 63.9374 12.746 63.9187C12.494 63.9001 12.284 63.8907 12.116 63.8907C11.584 63.8907 11.1407 63.9047 10.786 63.9327C10.4313 63.9514 10.142 64.0121 9.918 64.1147C9.694 64.2174 9.52133 64.3854 9.4 64.6187C9.288 64.8521 9.20867 65.1787 9.162 65.5987C9.11533 66.0094 9.092 66.5414 9.092 67.1947C9.092 67.7734 9.106 68.2587 9.134 68.6507C9.17133 69.0427 9.232 69.3647 9.316 69.6167C9.40933 69.8687 9.54 70.0647 9.708 70.2047C9.88533 70.3354 10.1093 70.4241 10.38 70.4707C10.66 70.5174 11.0053 70.5407 11.416 70.5407C11.5653 70.5407 11.7193 70.5407 11.878 70.5407C12.046 70.5314 12.2 70.5221 12.34 70.5127C12.4893 70.5034 12.6107 70.4941 12.704 70.4847V68.1047H11.094V66.5367H14.58V71.8147C14.2627 71.8801 13.908 71.9361 13.516 71.9827C13.124 72.0201 12.7413 72.0527 12.368 72.0807C11.9947 72.1087 11.654 72.1227 11.346 72.1227ZM18.3592 72.1227C17.9019 72.1227 17.5146 72.0574 17.1972 71.9267C16.8799 71.7867 16.6372 71.5627 16.4692 71.2547C16.3106 70.9374 16.2312 70.5221 16.2312 70.0087C16.2312 69.4581 16.2966 69.0241 16.4272 68.7067C16.5579 68.3801 16.7866 68.1467 17.1132 68.0067C17.4399 67.8574 17.8926 67.7827 18.4712 67.7827C18.5646 67.7827 18.6952 67.7874 18.8632 67.7967C19.0312 67.7967 19.2226 67.8014 19.4372 67.8107C19.6519 67.8107 19.8666 67.8154 20.0812 67.8247C20.2959 67.8247 20.4919 67.8294 20.6692 67.8387V67.5587C20.6692 67.2507 20.6459 67.0081 20.5992 66.8307C20.5526 66.6534 20.4639 66.5227 20.3332 66.4387C20.2026 66.3547 20.0112 66.3034 19.7592 66.2847C19.5072 66.2661 19.1806 66.2567 18.7792 66.2567C18.5739 66.2567 18.3359 66.2614 18.0652 66.2707C17.7946 66.2801 17.5332 66.2941 17.2812 66.3127C17.0292 66.3314 16.8286 66.3501 16.6792 66.3687V64.9687C17.0806 64.9034 17.5146 64.8521 17.9812 64.8147C18.4479 64.7774 18.9192 64.7587 19.3952 64.7587C19.9552 64.7587 20.4219 64.7961 20.7952 64.8707C21.1779 64.9361 21.4812 65.0434 21.7052 65.1927C21.9386 65.3421 22.1112 65.5334 22.2232 65.7667C22.3446 65.9907 22.4239 66.2614 22.4612 66.5787C22.4986 66.8867 22.5172 67.2414 22.5172 67.6427V72.0107H20.7952L20.7392 71.1427H20.6272C20.4686 71.4321 20.2586 71.6467 19.9972 71.7867C19.7452 71.9267 19.4746 72.0154 19.1852 72.0527C18.9052 72.0994 18.6299 72.1227 18.3592 72.1227ZM19.2412 70.6947C19.4466 70.6947 19.6239 70.6807 19.7732 70.6527C19.9319 70.6247 20.0672 70.5781 20.1792 70.5127C20.3006 70.4381 20.3939 70.3447 20.4592 70.2327C20.5246 70.1114 20.5759 69.9621 20.6132 69.7847C20.6506 69.6074 20.6692 69.3927 20.6692 69.1407V68.9307H18.9752C18.7139 68.9307 18.5132 68.9494 18.3732 68.9867C18.2332 69.0241 18.1399 69.1081 18.0932 69.2387C18.0466 69.3694 18.0232 69.5654 18.0232 69.8267C18.0232 70.0694 18.0512 70.2561 18.1072 70.3867C18.1632 70.5081 18.2799 70.5921 18.4572 70.6387C18.6346 70.6761 18.8959 70.6947 19.2412 70.6947ZM24.5253 72.0107V64.8707H26.2613L26.3173 65.7667H26.4153C26.5366 65.5427 26.6906 65.3561 26.8773 65.2067C27.0733 65.0481 27.3019 64.9361 27.5633 64.8707C27.8339 64.7961 28.1373 64.7587 28.4733 64.7587C29.0426 64.7587 29.4719 64.8427 29.7613 65.0107C30.0599 65.1694 30.2699 65.4214 30.3913 65.7667H30.5033C30.6246 65.5427 30.7833 65.3561 30.9793 65.2067C31.1846 65.0481 31.4226 64.9361 31.6933 64.8707C31.9639 64.7961 32.2719 64.7587 32.6173 64.7587C33.2239 64.7587 33.6766 64.8661 33.9753 65.0807C34.2739 65.2861 34.4746 65.5987 34.5773 66.0187C34.6799 66.4294 34.7313 66.9381 34.7313 67.5447V72.0107H32.8833V68.2307C32.8833 67.8014 32.8693 67.4607 32.8413 67.2087C32.8133 66.9567 32.7619 66.7701 32.6873 66.6487C32.6219 66.5274 32.5146 66.4527 32.3653 66.4247C32.2159 66.3874 32.0153 66.3687 31.7632 66.3687C31.4926 66.3687 31.2733 66.4061 31.1053 66.4807C30.9466 66.5461 30.8253 66.6534 30.7413 66.8027C30.6666 66.9521 30.6153 67.1527 30.5873 67.4047C30.5686 67.6474 30.5593 67.9507 30.5593 68.3147V72.0107H28.6973V68.2307C28.6973 67.8014 28.6833 67.4607 28.6553 67.2087C28.6366 66.9567 28.5899 66.7701 28.5153 66.6487C28.4406 66.5274 28.3286 66.4527 28.1793 66.4247C28.0299 66.3874 27.8339 66.3687 27.5913 66.3687C27.3206 66.3687 27.1013 66.4061 26.9333 66.4807C26.7746 66.5461 26.6533 66.6534 26.5693 66.8027C26.4946 66.9521 26.4433 67.1527 26.4153 67.4047C26.3873 67.6567 26.3733 67.9601 26.3733 68.3147V72.0107H24.5253ZM39.9122 72.1227C39.2776 72.1227 38.7502 72.0807 38.3302 71.9967C37.9102 71.9127 37.5742 71.7821 37.3222 71.6047C37.0796 71.4181 36.8929 71.1847 36.7622 70.9047C36.6409 70.6154 36.5616 70.2701 36.5242 69.8687C36.4962 69.4581 36.4822 68.9867 36.4822 68.4547C36.4822 67.8201 36.5149 67.2694 36.5802 66.8027C36.6456 66.3361 36.7809 65.9534 36.9862 65.6547C37.2009 65.3467 37.5276 65.1227 37.9662 64.9827C38.4142 64.8334 39.0069 64.7587 39.7442 64.7587C40.3416 64.7587 40.8269 64.8054 41.2002 64.8987C41.5736 64.9921 41.8676 65.1321 42.0822 65.3187C42.3062 65.5054 42.4649 65.7481 42.5582 66.0467C42.6609 66.3361 42.7262 66.6814 42.7542 67.0827C42.7822 67.4841 42.7962 67.9414 42.7962 68.4547V69.0007H38.3302C38.3302 69.3554 38.3442 69.6447 38.3722 69.8687C38.4096 70.0834 38.4889 70.2467 38.6102 70.3587C38.7409 70.4707 38.9416 70.5454 39.2122 70.5827C39.4922 70.6201 39.8702 70.6387 40.3462 70.6387C40.5422 70.6387 40.7616 70.6341 41.0042 70.6247C41.2562 70.6154 41.5129 70.6014 41.7742 70.5827C42.0449 70.5641 42.2922 70.5454 42.5162 70.5267V71.8987C42.3109 71.9454 42.0589 71.9827 41.7602 72.0107C41.4709 72.0481 41.1629 72.0761 40.8362 72.0947C40.5189 72.1134 40.2109 72.1227 39.9122 72.1227ZM41.0322 68.0767V67.8527C41.0322 67.4887 41.0089 67.1994 40.9622 66.9847C40.9249 66.7607 40.8549 66.5927 40.7522 66.4807C40.6589 66.3687 40.5282 66.2987 40.3602 66.2707C40.1922 66.2334 39.9776 66.2147 39.7162 66.2147C39.4082 66.2147 39.1656 66.2381 38.9882 66.2847C38.8109 66.3221 38.6756 66.4014 38.5822 66.5227C38.4889 66.6347 38.4236 66.8027 38.3862 67.0267C38.3489 67.2414 38.3302 67.5167 38.3302 67.8527H41.2842L41.0322 68.0767ZM51.5282 72.1227C51.1735 72.1227 50.7815 72.1134 50.3522 72.0947C49.9322 72.0761 49.5215 72.0481 49.1202 72.0107C48.7189 71.9827 48.3502 71.9501 48.0142 71.9127V70.3307C48.3595 70.3587 48.7095 70.3867 49.0642 70.4147C49.4282 70.4427 49.7735 70.4661 50.1002 70.4847C50.4269 70.4941 50.7069 70.4987 50.9402 70.4987C51.4162 70.4987 51.7849 70.4801 52.0462 70.4427C52.3075 70.3961 52.5035 70.3307 52.6342 70.2467C52.7369 70.1721 52.8069 70.0927 52.8442 70.0087C52.8815 69.9154 52.9049 69.8081 52.9142 69.6867C52.9235 69.5561 52.9282 69.4114 52.9282 69.2527C52.9282 69.0381 52.9142 68.8607 52.8862 68.7207C52.8675 68.5807 52.8302 68.4734 52.7742 68.3987C52.7182 68.3147 52.6249 68.2541 52.4942 68.2167C52.3729 68.1794 52.2142 68.1514 52.0182 68.1327L49.8622 67.8667C49.4329 67.8107 49.0782 67.7127 48.7982 67.5727C48.5275 67.4327 48.3129 67.2461 48.1542 67.0127C47.9955 66.7794 47.8835 66.5041 47.8182 66.1867C47.7622 65.8694 47.7342 65.5101 47.7342 65.1087C47.7342 64.4741 47.8229 63.9701 48.0002 63.5967C48.1775 63.2234 48.4249 62.9387 48.7422 62.7427C49.0689 62.5467 49.4515 62.4207 49.8902 62.3647C50.3289 62.2994 50.8049 62.2667 51.3182 62.2667C51.6915 62.2667 52.0742 62.2807 52.4662 62.3087C52.8582 62.3274 53.2269 62.3554 53.5722 62.3927C53.9175 62.4301 54.2069 62.4767 54.4402 62.5327V64.0727C54.2069 64.0354 53.9362 64.0027 53.6282 63.9747C53.3202 63.9467 52.9982 63.9281 52.6622 63.9187C52.3262 63.9001 52.0089 63.8907 51.7102 63.8907C51.2715 63.8907 50.9215 63.9094 50.6602 63.9467C50.4082 63.9747 50.2122 64.0261 50.0722 64.1007C49.9135 64.1941 49.8155 64.3154 49.7782 64.4647C49.7502 64.6141 49.7362 64.8007 49.7362 65.0247C49.7362 65.3047 49.7549 65.5194 49.7922 65.6687C49.8295 65.8087 49.9182 65.9067 50.0582 65.9627C50.1982 66.0187 50.4175 66.0654 50.7162 66.1027L52.8722 66.3547C53.1335 66.3827 53.3762 66.4294 53.6002 66.4947C53.8242 66.5601 54.0249 66.6627 54.2022 66.8027C54.3795 66.9427 54.5242 67.1387 54.6362 67.3907C54.7015 67.5214 54.7529 67.6754 54.7902 67.8527C54.8275 68.0207 54.8555 68.2121 54.8742 68.4267C54.9022 68.6414 54.9162 68.8794 54.9162 69.1407C54.9162 69.6821 54.8602 70.1347 54.7482 70.4987C54.6455 70.8627 54.4962 71.1521 54.3002 71.3667C54.1042 71.5814 53.8615 71.7447 53.5722 71.8567C53.2922 71.9687 52.9795 72.0387 52.6342 72.0667C52.2889 72.1041 51.9202 72.1227 51.5282 72.1227ZM57.2031 72.0107V66.3687H55.8311V64.8707H57.2031V62.7987H59.0651V64.8707H60.6891V66.3687H59.0651V72.0107H57.2031ZM63.5995 72.1227C63.1421 72.1227 62.7548 72.0574 62.4375 71.9267C62.1201 71.7867 61.8775 71.5627 61.7095 71.2547C61.5508 70.9374 61.4715 70.5221 61.4715 70.0087C61.4715 69.4581 61.5368 69.0241 61.6675 68.7067C61.7981 68.3801 62.0268 68.1467 62.3535 68.0067C62.6801 67.8574 63.1328 67.7827 63.7115 67.7827C63.8048 67.7827 63.9355 67.7874 64.1035 67.7967C64.2715 67.7967 64.4628 67.8014 64.6775 67.8107C64.8921 67.8107 65.1068 67.8154 65.3215 67.8247C65.5361 67.8247 65.7321 67.8294 65.9095 67.8387V67.5587C65.9095 67.2507 65.8861 67.0081 65.8395 66.8307C65.7928 66.6534 65.7041 66.5227 65.5735 66.4387C65.4428 66.3547 65.2515 66.3034 64.9995 66.2847C64.7475 66.2661 64.4208 66.2567 64.0195 66.2567C63.8141 66.2567 63.5761 66.2614 63.3055 66.2707C63.0348 66.2801 62.7735 66.2941 62.5215 66.3127C62.2695 66.3314 62.0688 66.3501 61.9195 66.3687V64.9687C62.3208 64.9034 62.7548 64.8521 63.2215 64.8147C63.6881 64.7774 64.1595 64.7587 64.6355 64.7587C65.1955 64.7587 65.6621 64.7961 66.0355 64.8707C66.4181 64.9361 66.7215 65.0434 66.9455 65.1927C67.1788 65.3421 67.3515 65.5334 67.4635 65.7667C67.5848 65.9907 67.6641 66.2614 67.7015 66.5787C67.7388 66.8867 67.7575 67.2414 67.7575 67.6427V72.0107H66.0355L65.9795 71.1427H65.8675C65.7088 71.4321 65.4988 71.6467 65.2375 71.7867C64.9855 71.9267 64.7148 72.0154 64.4255 72.0527C64.1455 72.0994 63.8701 72.1227 63.5995 72.1227ZM64.4815 70.6947C64.6868 70.6947 64.8641 70.6807 65.0135 70.6527C65.1721 70.6247 65.3075 70.5781 65.4195 70.5127C65.5408 70.4381 65.6341 70.3447 65.6995 70.2327C65.7648 70.1114 65.8161 69.9621 65.8535 69.7847C65.8908 69.6074 65.9095 69.3927 65.9095 69.1407V68.9307H64.2155C63.9541 68.9307 63.7535 68.9494 63.6135 68.9867C63.4735 69.0241 63.3801 69.1081 63.3335 69.2387C63.2868 69.3694 63.2635 69.5654 63.2635 69.8267C63.2635 70.0694 63.2915 70.2561 63.3475 70.3867C63.4035 70.5081 63.5201 70.5921 63.6975 70.6387C63.8748 70.6761 64.1361 70.6947 64.4815 70.6947ZM69.7655 72.0107V64.8707H71.5015L71.5575 66.1027H71.6695C71.7908 65.7481 71.9542 65.4727 72.1595 65.2767C72.3742 65.0807 72.6308 64.9454 72.9295 64.8707C73.2282 64.7961 73.5688 64.7587 73.9515 64.7587V66.5227C73.3448 66.5227 72.8688 66.6067 72.5235 66.7747C72.1875 66.9427 71.9495 67.2181 71.8095 67.6007C71.6788 67.9834 71.6135 68.5014 71.6135 69.1547V72.0107H69.7655ZM75.9609 72.0107V66.3687H74.5889V64.8707H75.9609V62.7987H77.8229V64.8707H79.4469V66.3687H77.8229V72.0107H75.9609Z" fill="black"/>
</g>
<defs>
<clipPath id="clip0_2_357">
<rect width="86" height="86" fill="white"/>
</clipPath>
</defs>
</svg>
